<svg width="360" height="165" viewBox="0 0 360 165" xmlns="http://www.w3.org/2000/svg">
  <defs>
    <linearGradient id="langs-bg" x1="0" y1="0" x2="1" y2="1">
      <stop offset="0%" stop-color="#0a0f1f"/>
      <stop offset="100%" stop-color="#11172a"/>
    </linearGradient>
  </defs>
  <rect width="360" height="165" rx="10" fill="url(#langs-bg)"/>
  <rect width="360" height="165" rx="10" fill="none" stroke="#21262d" stroke-width="1"/>
  <rect x="0" y="0" width="360" height="34" rx="10" fill="#11172a"/>
  <rect x="0" y="24" width="360" height="10" fill="#11172a"/>
  <circle cx="20" cy="17" r="5" fill="#f78166"/>
  <circle cx="36" cy="17" r="5" fill="#ffa657"/>
  <circle cx="52" cy="17" r="5" fill="#39ff14"/>
  <text x="180" y="22" font-family="'Courier New',monospace" font-size="11" fill="#8b949e" text-anchor="middle" letter-spacing="2">TOP LANGUAGES</text>
  <text x="336" y="22" font-family="'Courier New',monospace" font-size="9" fill="#39ff14" text-anchor="end">2026-05-18 02:57 IST</text>
  <rect x="20" y="42" width="320" height="1" fill="#21262d"/>
  <text x="24" y="60" font-family="'Courier New',monospace" font-size="12" fill="#e6edf3">Python</text><text x="336" y="60" font-family="'Courier New',monospace" font-size="11" fill="#8b949e" text-anchor="end">36%</text><rect x="24" y="67" width="260" height="6" rx="3" fill="#21262d"/><rect x="24" y="67" width="87" height="6" rx="3" fill="#7c3aed"/><text x="24" y="78" font-family="'Courier New',monospace" font-size="12" fill="#e6edf3">HTML</text><text x="336" y="78" font-family="'Courier New',monospace" font-size="11" fill="#8b949e" text-anchor="end">18%</text><rect x="24" y="85" width="260" height="6" rx="3" fill="#21262d"/><rect x="24" y="85" width="43" height="6" rx="3" fill="#00e5ff"/><text x="24" y="96" font-family="'Courier New',monospace" font-size="12" fill="#e6edf3">C++</text><text x="336" y="96" font-family="'Courier New',monospace" font-size="11" fill="#8b949e" text-anchor="end">16%</text><rect x="24" y="103" width="260" height="6" rx="3" fill="#21262d"/><rect x="24" y="103" width="38" height="6" rx="3" fill="#6ee7b7"/><text x="24" y="114" font-family="'Courier New',monospace" font-size="12" fill="#e6edf3">JavaScript</text><text x="336" y="114" font-family="'Courier New',monospace" font-size="11" fill="#8b949e" text-anchor="end">14%</text><rect x="24" y="121" width="260" height="6" rx="3" fill="#21262d"/><rect x="24" y="121" width="32" height="6" rx="3" fill="#ffa657"/><text x="24" y="132" font-family="'Courier New',monospace" font-size="12" fill="#e6edf3">TypeScript</text><text x="336" y="132" font-family="'Courier New',monospace" font-size="11" fill="#8b949e" text-anchor="end">7%</text><rect x="24" y="139" width="260" height="6" rx="3" fill="#21262d"/><rect x="24" y="139" width="18" height="6" rx="3" fill="#f78166"/>
  <text x="20" y="154" font-family="'Courier New',monospace" font-size="9" fill="#8b949e">aggregated from public repositories</text>
</svg>
