<svg width="348" height="210" viewBox="0 0 348 210" xmlns="http://www.w3.org/2000/svg">

  <rect width="348" height="210" fill="#0d1117" rx="10"/>
  <rect width="348" height="210" fill="none" stroke="#21262d" stroke-width="1" rx="10"/>

  <!-- Header bar -->
  <rect x="0" y="0" width="348" height="36" fill="#161b22" rx="10"/>
  <rect x="0" y="26" width="348" height="10" fill="#161b22"/>
  <circle cx="20" cy="18" r="5" fill="#f78166"/>
  <circle cx="36" cy="18" r="5" fill="#ffa657"/>
  <circle cx="52" cy="18" r="5" fill="#3fb950"/>
  <text x="174" y="23" font-family="'Courier New',monospace" font-size="11" fill="#8b949e" text-anchor="middle" letter-spacing="2">SKILLS.JSON</text>

  <!-- Skill chips row 1 -->
  <!-- Python -->
  <rect x="14" y="50" width="68" height="26" fill="#1f2937" rx="5" stroke="#3b82f6" stroke-width="0.5"/>
  <text x="48" y="67" font-family="'Courier New',monospace" font-size="12" fill="#60a5fa" text-anchor="middle">Python</text>
  <!-- C++ -->
  <rect x="90" y="50" width="58" height="26" fill="#1f2937" rx="5" stroke="#a78bfa" stroke-width="0.5"/>
  <text x="119" y="67" font-family="'Courier New',monospace" font-size="12" fill="#c4b5fd" text-anchor="middle">C++</text>
  <!-- JS -->
  <rect x="156" y="50" width="52" height="26" fill="#1f2937" rx="5" stroke="#fbbf24" stroke-width="0.5"/>
  <text x="182" y="67" font-family="'Courier New',monospace" font-size="12" fill="#fcd34d" text-anchor="middle">JS</text>
  <!-- HTML -->
  <rect x="216" y="50" width="62" height="26" fill="#1f2937" rx="5" stroke="#f97316" stroke-width="0.5"/>
  <text x="247" y="67" font-family="'Courier New',monospace" font-size="12" fill="#fb923c" text-anchor="middle">HTML</text>
  <!-- CSS -->
  <rect x="286" y="50" width="52" height="26" fill="#1f2937" rx="5" stroke="#06b6d4" stroke-width="0.5"/>
  <text x="312" y="67" font-family="'Courier New',monospace" font-size="12" fill="#22d3ee" text-anchor="middle">CSS</text>

  <!-- Row 2 -->
  <rect x="14" y="86" width="68" height="26" fill="#1f2937" rx="5" stroke="#3fb950" stroke-width="0.5"/>
  <text x="48" y="103" font-family="'Courier New',monospace" font-size="12" fill="#3fb950" text-anchor="middle">React</text>
  <rect x="90" y="86" width="58" height="26" fill="#1f2937" rx="5" stroke="#64748b" stroke-width="0.5"/>
  <text x="119" y="103" font-family="'Courier New',monospace" font-size="12" fill="#94a3b8" text-anchor="middle">Node</text>
  <rect x="156" y="86" width="60" height="26" fill="#1f2937" rx="5" stroke="#f87171" stroke-width="0.5"/>
  <text x="186" y="103" font-family="'Courier New',monospace" font-size="12" fill="#fca5a5" text-anchor="middle">Linux</text>
  <rect x="224" y="86" width="52" height="26" fill="#1f2937" rx="5" stroke="#34d399" stroke-width="0.5"/>
  <text x="250" y="103" font-family="'Courier New',monospace" font-size="12" fill="#6ee7b7" text-anchor="middle">Git</text>
  <rect x="284" y="86" width="54" height="26" fill="#1f2937" rx="5" stroke="#818cf8" stroke-width="0.5"/>
  <text x="311" y="103" font-family="'Courier New',monospace" font-size="12" fill="#a5b4fc" text-anchor="middle">SQL</text>

  <!-- Row 3 (tools) -->
  <rect x="14" y="122" width="78" height="26" fill="#1f2937" rx="5" stroke="#f472b6" stroke-width="0.5"/>
  <text x="53" y="139" font-family="'Courier New',monospace" font-size="12" fill="#f9a8d4" text-anchor="middle">Blender</text>
  <rect x="100" y="122" width="72" height="26" fill="#1f2937" rx="5" stroke="#67e8f9" stroke-width="0.5"/>
  <text x="136" y="139" font-family="'Courier New',monospace" font-size="12" fill="#a5f3fc" text-anchor="middle">VS Code</text>
  <rect x="180" y="122" width="78" height="26" fill="#1f2937" rx="5" stroke="#fbbf24" stroke-width="0.5"/>
  <text x="219" y="139" font-family="'Courier New',monospace" font-size="12" fill="#fde68a" text-anchor="middle">Figma</text>
  <rect x="266" y="122" width="72" height="26" fill="#1f2937" rx="5" stroke="#fb923c" stroke-width="0.5"/>
  <text x="302" y="139" font-family="'Courier New',monospace" font-size="12" fill="#fdba74" text-anchor="middle">Docker</text>

  <!-- Divider -->
  <rect x="14" y="162" width="320" height="1" fill="#21262d"/>

  <!-- Bottom learning label -->
  <text x="14" y="180" font-family="'Courier New',monospace" font-size="10" fill="#8b949e">Currently learning: </text>
  <text x="141" y="180" font-family="'Courier New',monospace" font-size="10" fill="#58a6ff">
    <tspan>Rust</tspan>
    <animate attributeName="opacity" values="1;0.4;1" dur="3s" repeatCount="indefinite"/>
  </text>
  <text x="175" y="180" font-family="'Courier New',monospace" font-size="10" fill="#8b949e"> · </text>
  <text x="185" y="180" font-family="'Courier New',monospace" font-size="10" fill="#3fb950">Machine Learning</text>

  <!-- Corner tag -->
  <text x="14" y="200" font-family="'Courier New',monospace" font-size="9" fill="#30363d">// always_learning: true</text>
</svg>
