<svg width="860" height="120" viewBox="0 0 860 120" fill="none" xmlns="http://www.w3.org/2000/svg" role="img" aria-label="Technology stack">
  <rect width="860" height="120" rx="16" fill="#12161b"/>
  <rect x="1" y="1" width="858" height="118" rx="15" stroke="#2a313a"/>

  <text x="40" y="24" font-family="'JetBrains Mono','SFMono-Regular',monospace" font-size="11" fill="#9da6b2" letter-spacing="1">STACK</text>

  <g font-family="Inter, sans-serif" font-size="12" fill="#e8e4dc">
    <g>
      <rect x="40" y="34" width="110" height="28" rx="14" fill="#171c22" stroke="#2a313a"/>
      <circle cx="54" cy="48" r="4" fill="#d7c3a3"/>
      <text x="66" y="52">Python</text>
    </g>
    <g>
      <rect x="162" y="34" width="140" height="28" rx="14" fill="#171c22" stroke="#2a313a"/>
      <circle cx="176" cy="48" r="4" fill="#7a8fa6"/>
      <text x="188" y="52">JavaScript</text>
    </g>
    <g>
      <rect x="314" y="34" width="100" height="28" rx="14" fill="#171c22" stroke="#2a313a"/>
      <circle cx="328" cy="48" r="4" fill="#b89f7a"/>
      <text x="340" y="52">HTML</text>
    </g>
    <g>
      <rect x="426" y="34" width="90" height="28" rx="14" fill="#171c22" stroke="#2a313a"/>
      <circle cx="440" cy="48" r="4" fill="#66708a"/>
      <text x="452" y="52">CSS</text>
    </g>
    <g>
      <rect x="528" y="34" width="120" height="28" rx="14" fill="#171c22" stroke="#2a313a"/>
      <circle cx="542" cy="48" r="4" fill="#7a8fa6"/>
      <text x="554" y="52">Node.js</text>
    </g>

    <g>
      <rect x="200" y="72" width="110" height="28" rx="14" fill="#171c22" stroke="#2a313a"/>
      <circle cx="214" cy="86" r="4" fill="#7a8fa6"/>
      <text x="226" y="90">React</text>
    </g>
    <g>
      <rect x="322" y="72" width="90" height="28" rx="14" fill="#171c22" stroke="#2a313a"/>
      <circle cx="336" cy="86" r="4" fill="#d7c3a3"/>
      <text x="348" y="90">Git</text>
    </g>
    <g>
      <rect x="424" y="72" width="110" height="28" rx="14" fill="#171c22" stroke="#2a313a"/>
      <circle cx="438" cy="86" r="4" fill="#66708a"/>
      <text x="450" y="90">Linux</text>
    </g>
    <g>
      <rect x="546" y="72" width="120" height="28" rx="14" fill="#171c22" stroke="#2a313a"/>
      <circle cx="560" cy="86" r="4" fill="#b89f7a"/>
      <text x="572" y="90">GitHub</text>
    </g>
  </g>
</svg>
